<?xml version="1.0" encoding="utf-8"?><!-- Uploaded to: SVG Repo, www.svgrepo.com, Generator: SVG Repo Mixer Tools -->
<svg version="1.1" id="designs" xmlns="http://www.w3.org/2000/svg" xmlns:xlink="http://www.w3.org/1999/xlink" 
	 width="800px" height="800px" viewBox="0 0 32 32" xml:space="preserve">
<style type="text/css">
	.scienceandfiction_een{fill:#2B4099;}
	.scienceandfiction_twee{fill:#CC2954;}
</style>
<path class="scienceandfiction_een" d="M31,11v-1h-3v0l-2.083-1H25V7.489c0.604-0.456,1-1.173,1-1.989C26,4.119,24.881,3,23.5,3
	S21,4.119,21,5.5c0,0.815,0.396,1.532,1,1.989V9h-1.042L19,10h-6v0l-2.083-1H10V7.489c0.604-0.456,1-1.173,1-1.989
	C11,4.119,9.881,3,8.5,3S6,4.119,6,5.5c0,0.815,0.396,1.532,1,1.989V9H5.958L4,10v0H1v1h3v1H1v1h3v0v1l2,9v3H5v4h7v-4h-1v-3l2-9v-1
	v0h6v0v1l2,9v3h-1v4h7v-4h-1v-3l2-9v-1v0h3v-1h-3v-1H31z M7,10h1v7H7V10z M9,10h1v7H9V10z M8.5,4C9.327,4,10,4.673,10,5.5
	S9.327,7,8.5,7S7,6.327,7,5.5S7.673,4,8.5,4z M8,7.95C8.162,7.982,8.329,8,8.5,8S8.838,7.982,9,7.95V9H8V7.95z M5,10.612l1-0.511V17
	H5.691L5,13.89V10.612z M11,29H6v-2h5V29z M10,22.89V26H7v-3.11L5.913,18h5.173L10,22.89z M12,13.89L11.309,17H11v-6.851l1,0.48
	V13.89z M22,10h1v7h-1V10z M24,10h1v7h-1V10z M23.5,4C24.327,4,25,4.673,25,5.5S24.327,7,23.5,7S22,6.327,22,5.5S22.673,4,23.5,4z
	 M23,7.95C23.162,7.982,23.329,8,23.5,8s0.338-0.018,0.5-0.05V9h-1V7.95z M13,12v-1h6v1H13z M20,10.612l1-0.511V17h-0.309L20,13.89
	V10.612z M26,29h-5v-2h5V29z M25,22.89V26h-3v-3.11L20.913,18h5.173L25,22.89z M27,13.89L26.309,17H26v-6.851l1,0.48V13.89z"/>
<path class="scienceandfiction_twee" d="M16,20c-1.657,0-3,1.343-3,3s1.343,3,3,3s3-1.343,3-3S17.657,20,16,20z M16,25
	c-0.737,0-1.375-0.405-1.722-1H15v-1h-1v0c0,0,0,0,0-0.001c0-1.103,0.897-2,2-2c0.737,0,1.375,0.405,1.722,1H17v1h1
	C18,24.103,17.103,25,16,25z M16,23h1v1h-1V23z M15,22h1v1h-1V22z"/>
</svg>