<?xml version="1.0" encoding="utf-8"?><!-- Uploaded to: SVG Repo, www.svgrepo.com, Generator: SVG Repo Mixer Tools -->
<svg version="1.1" id="designs" xmlns="http://www.w3.org/2000/svg" xmlns:xlink="http://www.w3.org/1999/xlink" 
	 width="800px" height="800px" viewBox="0 0 32 32" xml:space="preserve">
<style type="text/css">
	.scienceandfiction_een{fill:#2B4099;}
	.scienceandfiction_twee{fill:#CC2954;}
</style>
<path class="scienceandfiction_een" d="M9,4v25h15V4H9z M23,28H10V13h13V28z M23,12H10V5h13V12z"/>
<path class="scienceandfiction_twee" d="M22,6H11v5h11V6z M21,10h-9V7h9V10z M18,19h-3v3h3V19z M17,21h-1v-1h1V21z M22,19h-3v3h3V19
	z M21,21h-1v-1h1V21z M14,19h-3v3h3V19z M13,21h-1v-1h1V21z M18,15h-3v3h3V15z M17,17h-1v-1h1V17z M22,15h-3v3h3V15z M21,17h-1v-1h1
	V17z M14,15h-3v3h3V15z M13,17h-1v-1h1V17z M18,23h-3v3h3V23z M17,25h-1v-1h1V25z M22,23h-3v3h3V23z M21,25h-1v-1h1V25z M14,23h-3v3
	h3V23z M13,25h-1v-1h1V25z"/>
</svg>